General 
Complete name : F:bíó myndirGUÐ BLESSI ÍSLANDGuð blessi Ísland (2009) DVDRip XviD.avi 
Format : AVI 
Format/Info : Audio Video Interleave 
File size : 1.18 GiB 
Duration : 1h 34mn 
Overall bit rate : 1 787 Kbps 
Writing application : FairUse Wizard - http://fairusewizard.com 
Writing library : The best and REALLY easy backup tool 

Video 
ID : 0 
Format : MPEG-4 Visual 
Format profile : Simple@L0 
Format settings, BVOP : No 
Format settings, QPel : No 
Format settings, GMC : No warppoints 
Format settings, Matrix : Default (H.263) 
Codec ID : XVID 
Codec ID/Hint : XviD 
Duration : 1h 34mn 
Bit rate : 1 516 Kbps 
Width : 688 pixels 
Height : 384 pixels 
Display aspect ratio : 16:9 
Frame rate : 25.000 fps 
Resolution : 24 bits 
Colorimetry : 4:2:0 
Scan type : Progressive 
Bits/(Pixel*Frame) : 0.230 
Stream size : 1.00 GiB (85%) 
Writing library : XviD 1.2.0.dev47 (UTC 2006-11-01) 

Audio #1 
ID : 1 
Format : MPEG Audio 
Format version : Version 1 
Format profile : Layer 3 
Format_Settings_Mode : Joint stereo / MS Stereo 
Codec ID : 55 
Codec ID/Hint : MP3 
Duration : 1h 34mn 
Bit rate mode : Constant 
Bit rate : 128 Kbps 
Channel(s) : 2 channels 
Sampling rate : 48.0 KHz 
Resolution : 16 bits 
Stream size : 86.6 MiB (7%) 
Alignment : Aligned on interleaves 
Interleave, duration : 40 ms (1.00 video frame) 
Interleave, preload duration : 504 ms 
Writing library : LAME3.97  
Encoding settings : -m j -V 4 -q 2 -lowpass 17 -b 128 

Audio #2 
ID : 2 
Format : MPEG Audio 
Format version : Version 1 
Format profile : Layer 3 
Format_Settings_Mode : Joint stereo / MS Stereo 
Codec ID : 55 
Codec ID/Hint : MP3 
Duration : 1h 34mn 
Bit rate mode : Constant 
Bit rate : 128 Kbps 
Channel(s) : 2 channels 
Sampling rate : 48.0 KHz 
Resolution : 16 bits 
Stream size : 86.6 MiB (7%) 
Alignment : Aligned on interleaves 
Interleave, duration : 40 ms (1.00 video frame) 
Interleave, preload duration : 504 ms 
Writing library : LAME3.97  
Encoding settings : -m j -V 4 -q 2 -lowpass 17 -b 128 
